<?xml version="1.0" standalone="no"?>
<svg xmlns="http://www.w3.org/2000/svg" version="1.1" width="236" height="236">
	<!-- Created with https://api.qrserver.com (QR Code API, see goQR.me/api for information) -->
	<title>QR Code</title>
	<desc>BEGIN:VCARD
VERSION:2.1
FN:Chakib Benziane
N:Benziane;Chakib
TITLE:UI/UX Designer - Frontend Engineer
TEL;WORK;VOICE:+49 157 548 93162
EMAIL;WORK;INTERNET:chakib.benz@gmail.com
URL:http://sp4ke.com
ADR:;;;Berlin;;;Germany
ORG:Freelance
END:VCARD
</desc>
	<rect style="fill:rgb(252, 252, 252);fill-opacity:1" x="0" y="0" width="236" height="236" />
	<g id="elements">
		<path style="fill:rgb(60, 60, 60)" d="M 4,4 l 4,0 0,4 -4,0 z M 8,4 l 4,0 0,4 -4,0 z M 12,4 l 4,0 0,4 -4,0 z M 16,4 l 4,0 0,4 -4,0 z M 20,4 l 4,0 0,4 -4,0 z M 24,4 l 4,0 0,4 -4,0 z M 28,4 l 4,0 0,4 -4,0 z M 48,4 l 4,0 0,4 -4,0 z M 52,4 l 4,0 0,4 -4,0 z M 60,4 l 4,0 0,4 -4,0 z M 64,4 l 4,0 0,4 -4,0 z M 72,4 l 4,0 0,4 -4,0 z M 76,4 l 4,0 0,4 -4,0 z M 84,4 l 4,0 0,4 -4,0 z M 88,4 l 4,0 0,4 -4,0 z M 92,4 l 4,0 0,4 -4,0 z M 96,4 l 4,0 0,4 -4,0 z M 104,4 l 4,0 0,4 -4,0 z M 116,4 l 4,0 0,4 -4,0 z M 132,4 l 4,0 0,4 -4,0 z M 140,4 l 4,0 0,4 -4,0 z M 156,4 l 4,0 0,4 -4,0 z M 160,4 l 4,0 0,4 -4,0 z M 168,4 l 4,0 0,4 -4,0 z M 184,4 l 4,0 0,4 -4,0 z M 188,4 l 4,0 0,4 -4,0 z M 192,4 l 4,0 0,4 -4,0 z M 204,4 l 4,0 0,4 -4,0 z M 208,4 l 4,0 0,4 -4,0 z M 212,4 l 4,0 0,4 -4,0 z M 216,4 l 4,0 0,4 -4,0 z M 220,4 l 4,0 0,4 -4,0 z M 224,4 l 4,0 0,4 -4,0 z M 228,4 l 4,0 0,4 -4,0 z M 4,8 l 4,0 0,4 -4,0 z M 28,8 l 4,0 0,4 -4,0 z M 36,8 l 4,0 0,4 -4,0 z M 44,8 l 4,0 0,4 -4,0 z M 48,8 l 4,0 0,4 -4,0 z M 60,8 l 4,0 0,4 -4,0 z M 68,8 l 4,0 0,4 -4,0 z M 84,8 l 4,0 0,4 -4,0 z M 92,8 l 4,0 0,4 -4,0 z M 120,8 l 4,0 0,4 -4,0 z M 124,8 l 4,0 0,4 -4,0 z M 128,8 l 4,0 0,4 -4,0 z M 132,8 l 4,0 0,4 -4,0 z M 136,8 l 4,0 0,4 -4,0 z M 140,8 l 4,0 0,4 -4,0 z M 160,8 l 4,0 0,4 -4,0 z M 168,8 l 4,0 0,4 -4,0 z M 172,8 l 4,0 0,4 -4,0 z M 176,8 l 4,0 0,4 -4,0 z M 192,8 l 4,0 0,4 -4,0 z M 204,8 l 4,0 0,4 -4,0 z M 228,8 l 4,0 0,4 -4,0 z M 4,12 l 4,0 0,4 -4,0 z M 12,12 l 4,0 0,4 -4,0 z M 16,12 l 4,0 0,4 -4,0 z M 20,12 l 4,0 0,4 -4,0 z M 28,12 l 4,0 0,4 -4,0 z M 40,12 l 4,0 0,4 -4,0 z M 44,12 l 4,0 0,4 -4,0 z M 56,12 l 4,0 0,4 -4,0 z M 76,12 l 4,0 0,4 -4,0 z M 80,12 l 4,0 0,4 -4,0 z M 96,12 l 4,0 0,4 -4,0 z M 100,12 l 4,0 0,4 -4,0 z M 112,12 l 4,0 0,4 -4,0 z M 120,12 l 4,0 0,4 -4,0 z M 128,12 l 4,0 0,4 -4,0 z M 140,12 l 4,0 0,4 -4,0 z M 152,12 l 4,0 0,4 -4,0 z M 160,12 l 4,0 0,4 -4,0 z M 164,12 l 4,0 0,4 -4,0 z M 180,12 l 4,0 0,4 -4,0 z M 188,12 l 4,0 0,4 -4,0 z M 192,12 l 4,0 0,4 -4,0 z M 204,12 l 4,0 0,4 -4,0 z M 212,12 l 4,0 0,4 -4,0 z M 216,12 l 4,0 0,4 -4,0 z M 220,12 l 4,0 0,4 -4,0 z M 228,12 l 4,0 0,4 -4,0 z M 4,16 l 4,0 0,4 -4,0 z M 12,16 l 4,0 0,4 -4,0 z M 16,16 l 4,0 0,4 -4,0 z M 20,16 l 4,0 0,4 -4,0 z M 28,16 l 4,0 0,4 -4,0 z M 36,16 l 4,0 0,4 -4,0 z M 76,16 l 4,0 0,4 -4,0 z M 92,16 l 4,0 0,4 -4,0 z M 96,16 l 4,0 0,4 -4,0 z M 100,16 l 4,0 0,4 -4,0 z M 104,16 l 4,0 0,4 -4,0 z M 120,16 l 4,0 0,4 -4,0 z M 124,16 l 4,0 0,4 -4,0 z M 148,16 l 4,0 0,4 -4,0 z M 152,16 l 4,0 0,4 -4,0 z M 164,16 l 4,0 0,4 -4,0 z M 184,16 l 4,0 0,4 -4,0 z M 192,16 l 4,0 0,4 -4,0 z M 204,16 l 4,0 0,4 -4,0 z M 212,16 l 4,0 0,4 -4,0 z M 216,16 l 4,0 0,4 -4,0 z M 220,16 l 4,0 0,4 -4,0 z M 228,16 l 4,0 0,4 -4,0 z M 4,20 l 4,0 0,4 -4,0 z M 12,20 l 4,0 0,4 -4,0 z M 16,20 l 4,0 0,4 -4,0 z M 20,20 l 4,0 0,4 -4,0 z M 28,20 l 4,0 0,4 -4,0 z M 44,20 l 4,0 0,4 -4,0 z M 52,20 l 4,0 0,4 -4,0 z M 56,20 l 4,0 0,4 -4,0 z M 64,20 l 4,0 0,4 -4,0 z M 76,20 l 4,0 0,4 -4,0 z M 80,20 l 4,0 0,4 -4,0 z M 84,20 l 4,0 0,4 -4,0 z M 88,20 l 4,0 0,4 -4,0 z M 100,20 l 4,0 0,4 -4,0 z M 108,20 l 4,0 0,4 -4,0 z M 112,20 l 4,0 0,4 -4,0 z M 116,20 l 4,0 0,4 -4,0 z M 120,20 l 4,0 0,4 -4,0 z M 124,20 l 4,0 0,4 -4,0 z M 132,20 l 4,0 0,4 -4,0 z M 136,20 l 4,0 0,4 -4,0 z M 140,20 l 4,0 0,4 -4,0 z M 152,20 l 4,0 0,4 -4,0 z M 156,20 l 4,0 0,4 -4,0 z M 160,20 l 4,0 0,4 -4,0 z M 172,20 l 4,0 0,4 -4,0 z M 180,20 l 4,0 0,4 -4,0 z M 192,20 l 4,0 0,4 -4,0 z M 204,20 l 4,0 0,4 -4,0 z M 212,20 l 4,0 0,4 -4,0 z M 216,20 l 4,0 0,4 -4,0 z M 220,20 l 4,0 0,4 -4,0 z M 228,20 l 4,0 0,4 -4,0 z M 4,24 l 4,0 0,4 -4,0 z M 28,24 l 4,0 0,4 -4,0 z M 36,24 l 4,0 0,4 -4,0 z M 56,24 l 4,0 0,4 -4,0 z M 72,24 l 4,0 0,4 -4,0 z M 84,24 l 4,0 0,4 -4,0 z M 96,24 l 4,0 0,4 -4,0 z M 100,24 l 4,0 0,4 -4,0 z M 108,24 l 4,0 0,4 -4,0 z M 124,24 l 4,0 0,4 -4,0 z M 128,24 l 4,0 0,4 -4,0 z M 136,24 l 4,0 0,4 -4,0 z M 140,24 l 4,0 0,4 -4,0 z M 144,24 l 4,0 0,4 -4,0 z M 148,24 l 4,0 0,4 -4,0 z M 176,24 l 4,0 0,4 -4,0 z M 180,24 l 4,0 0,4 -4,0 z M 184,24 l 4,0 0,4 -4,0 z M 188,24 l 4,0 0,4 -4,0 z M 204,24 l 4,0 0,4 -4,0 z M 228,24 l 4,0 0,4 -4,0 z M 4,28 l 4,0 0,4 -4,0 z M 8,28 l 4,0 0,4 -4,0 z M 12,28 l 4,0 0,4 -4,0 z M 16,28 l 4,0 0,4 -4,0 z M 20,28 l 4,0 0,4 -4,0 z M 24,28 l 4,0 0,4 -4,0 z M 28,28 l 4,0 0,4 -4,0 z M 36,28 l 4,0 0,4 -4,0 z M 44,28 l 4,0 0,4 -4,0 z M 52,28 l 4,0 0,4 -4,0 z M 60,28 l 4,0 0,4 -4,0 z M 68,28 l 4,0 0,4 -4,0 z M 76,28 l 4,0 0,4 -4,0 z M 84,28 l 4,0 0,4 -4,0 z M 92,28 l 4,0 0,4 -4,0 z M 100,28 l 4,0 0,4 -4,0 z M 108,28 l 4,0 0,4 -4,0 z M 116,28 l 4,0 0,4 -4,0 z M 124,28 l 4,0 0,4 -4,0 z M 132,28 l 4,0 0,4 -4,0 z M 140,28 l 4,0 0,4 -4,0 z M 148,28 l 4,0 0,4 -4,0 z M 156,28 l 4,0 0,4 -4,0 z M 164,28 l 4,0 0,4 -4,0 z M 172,28 l 4,0 0,4 -4,0 z M 180,28 l 4,0 0,4 -4,0 z M 188,28 l 4,0 0,4 -4,0 z M 196,28 l 4,0 0,4 -4,0 z M 204,28 l 4,0 0,4 -4,0 z M 208,28 l 4,0 0,4 -4,0 z M 212,28 l 4,0 0,4 -4,0 z M 216,28 l 4,0 0,4 -4,0 z M 220,28 l 4,0 0,4 -4,0 z M 224,28 l 4,0 0,4 -4,0 z M 228,28 l 4,0 0,4 -4,0 z M 52,32 l 4,0 0,4 -4,0 z M 56,32 l 4,0 0,4 -4,0 z M 60,32 l 4,0 0,4 -4,0 z M 64,32 l 4,0 0,4 -4,0 z M 76,32 l 4,0 0,4 -4,0 z M 80,32 l 4,0 0,4 -4,0 z M 84,32 l 4,0 0,4 -4,0 z M 100,32 l 4,0 0,4 -4,0 z M 108,32 l 4,0 0,4 -4,0 z M 124,32 l 4,0 0,4 -4,0 z M 128,32 l 4,0 0,4 -4,0 z M 136,32 l 4,0 0,4 -4,0 z M 148,32 l 4,0 0,4 -4,0 z M 152,32 l 4,0 0,4 -4,0 z M 156,32 l 4,0 0,4 -4,0 z M 160,32 l 4,0 0,4 -4,0 z M 164,32 l 4,0 0,4 -4,0 z M 180,32 l 4,0 0,4 -4,0 z M 188,32 l 4,0 0,4 -4,0 z M 196,32 l 4,0 0,4 -4,0 z M 4,36 l 4,0 0,4 -4,0 z M 8,36 l 4,0 0,4 -4,0 z M 12,36 l 4,0 0,4 -4,0 z M 16,36 l 4,0 0,4 -4,0 z M 20,36 l 4,0 0,4 -4,0 z M 28,36 l 4,0 0,4 -4,0 z M 32,36 l 4,0 0,4 -4,0 z M 36,36 l 4,0 0,4 -4,0 z M 40,36 l 4,0 0,4 -4,0 z M 56,36 l 4,0 0,4 -4,0 z M 64,36 l 4,0 0,4 -4,0 z M 72,36 l 4,0 0,4 -4,0 z M 76,36 l 4,0 0,4 -4,0 z M 92,36 l 4,0 0,4 -4,0 z M 104,36 l 4,0 0,4 -4,0 z M 108,36 l 4,0 0,4 -4,0 z M 112,36 l 4,0 0,4 -4,0 z M 116,36 l 4,0 0,4 -4,0 z M 120,36 l 4,0 0,4 -4,0 z M 124,36 l 4,0 0,4 -4,0 z M 128,36 l 4,0 0,4 -4,0 z M 132,36 l 4,0 0,4 -4,0 z M 136,36 l 4,0 0,4 -4,0 z M 140,36 l 4,0 0,4 -4,0 z M 148,36 l 4,0 0,4 -4,0 z M 152,36 l 4,0 0,4 -4,0 z M 160,36 l 4,0 0,4 -4,0 z M 164,36 l 4,0 0,4 -4,0 z M 176,36 l 4,0 0,4 -4,0 z M 180,36 l 4,0 0,4 -4,0 z M 184,36 l 4,0 0,4 -4,0 z M 188,36 l 4,0 0,4 -4,0 z M 196,36 l 4,0 0,4 -4,0 z M 200,36 l 4,0 0,4 -4,0 z M 208,36 l 4,0 0,4 -4,0 z M 216,36 l 4,0 0,4 -4,0 z M 224,36 l 4,0 0,4 -4,0 z M 12,40 l 4,0 0,4 -4,0 z M 32,40 l 4,0 0,4 -4,0 z M 44,40 l 4,0 0,4 -4,0 z M 80,40 l 4,0 0,4 -4,0 z M 84,40 l 4,0 0,4 -4,0 z M 88,40 l 4,0 0,4 -4,0 z M 92,40 l 4,0 0,4 -4,0 z M 96,40 l 4,0 0,4 -4,0 z M 104,40 l 4,0 0,4 -4,0 z M 112,40 l 4,0 0,4 -4,0 z M 148,40 l 4,0 0,4 -4,0 z M 156,40 l 4,0 0,4 -4,0 z M 160,40 l 4,0 0,4 -4,0 z M 168,40 l 4,0 0,4 -4,0 z M 172,40 l 4,0 0,4 -4,0 z M 176,40 l 4,0 0,4 -4,0 z M 192,40 l 4,0 0,4 -4,0 z M 200,40 l 4,0 0,4 -4,0 z M 204,40 l 4,0 0,4 -4,0 z M 208,40 l 4,0 0,4 -4,0 z M 212,40 l 4,0 0,4 -4,0 z M 216,40 l 4,0 0,4 -4,0 z M 220,40 l 4,0 0,4 -4,0 z M 4,44 l 4,0 0,4 -4,0 z M 8,44 l 4,0 0,4 -4,0 z M 24,44 l 4,0 0,4 -4,0 z M 28,44 l 4,0 0,4 -4,0 z M 40,44 l 4,0 0,4 -4,0 z M 44,44 l 4,0 0,4 -4,0 z M 56,44 l 4,0 0,4 -4,0 z M 60,44 l 4,0 0,4 -4,0 z M 64,44 l 4,0 0,4 -4,0 z M 68,44 l 4,0 0,4 -4,0 z M 76,44 l 4,0 0,4 -4,0 z M 80,44 l 4,0 0,4 -4,0 z M 92,44 l 4,0 0,4 -4,0 z M 96,44 l 4,0 0,4 -4,0 z M 100,44 l 4,0 0,4 -4,0 z M 112,44 l 4,0 0,4 -4,0 z M 128,44 l 4,0 0,4 -4,0 z M 144,44 l 4,0 0,4 -4,0 z M 148,44 l 4,0 0,4 -4,0 z M 164,44 l 4,0 0,4 -4,0 z M 172,44 l 4,0 0,4 -4,0 z M 180,44 l 4,0 0,4 -4,0 z M 184,44 l 4,0 0,4 -4,0 z M 196,44 l 4,0 0,4 -4,0 z M 208,44 l 4,0 0,4 -4,0 z M 212,44 l 4,0 0,4 -4,0 z M 216,44 l 4,0 0,4 -4,0 z M 220,44 l 4,0 0,4 -4,0 z M 224,44 l 4,0 0,4 -4,0 z M 12,48 l 4,0 0,4 -4,0 z M 16,48 l 4,0 0,4 -4,0 z M 40,48 l 4,0 0,4 -4,0 z M 44,48 l 4,0 0,4 -4,0 z M 48,48 l 4,0 0,4 -4,0 z M 60,48 l 4,0 0,4 -4,0 z M 64,48 l 4,0 0,4 -4,0 z M 68,48 l 4,0 0,4 -4,0 z M 72,48 l 4,0 0,4 -4,0 z M 76,48 l 4,0 0,4 -4,0 z M 80,48 l 4,0 0,4 -4,0 z M 88,48 l 4,0 0,4 -4,0 z M 92,48 l 4,0 0,4 -4,0 z M 96,48 l 4,0 0,4 -4,0 z M 100,48 l 4,0 0,4 -4,0 z M 112,48 l 4,0 0,4 -4,0 z M 116,48 l 4,0 0,4 -4,0 z M 120,48 l 4,0 0,4 -4,0 z M 124,48 l 4,0 0,4 -4,0 z M 132,48 l 4,0 0,4 -4,0 z M 136,48 l 4,0 0,4 -4,0 z M 160,48 l 4,0 0,4 -4,0 z M 172,48 l 4,0 0,4 -4,0 z M 184,48 l 4,0 0,4 -4,0 z M 192,48 l 4,0 0,4 -4,0 z M 204,48 l 4,0 0,4 -4,0 z M 208,48 l 4,0 0,4 -4,0 z M 216,48 l 4,0 0,4 -4,0 z M 220,48 l 4,0 0,4 -4,0 z M 4,52 l 4,0 0,4 -4,0 z M 12,52 l 4,0 0,4 -4,0 z M 28,52 l 4,0 0,4 -4,0 z M 32,52 l 4,0 0,4 -4,0 z M 44,52 l 4,0 0,4 -4,0 z M 52,52 l 4,0 0,4 -4,0 z M 56,52 l 4,0 0,4 -4,0 z M 60,52 l 4,0 0,4 -4,0 z M 64,52 l 4,0 0,4 -4,0 z M 68,52 l 4,0 0,4 -4,0 z M 76,52 l 4,0 0,4 -4,0 z M 92,52 l 4,0 0,4 -4,0 z M 100,52 l 4,0 0,4 -4,0 z M 108,52 l 4,0 0,4 -4,0 z M 112,52 l 4,0 0,4 -4,0 z M 116,52 l 4,0 0,4 -4,0 z M 124,52 l 4,0 0,4 -4,0 z M 128,52 l 4,0 0,4 -4,0 z M 132,52 l 4,0 0,4 -4,0 z M 136,52 l 4,0 0,4 -4,0 z M 140,52 l 4,0 0,4 -4,0 z M 144,52 l 4,0 0,4 -4,0 z M 152,52 l 4,0 0,4 -4,0 z M 156,52 l 4,0 0,4 -4,0 z M 168,52 l 4,0 0,4 -4,0 z M 172,52 l 4,0 0,4 -4,0 z M 196,52 l 4,0 0,4 -4,0 z M 200,52 l 4,0 0,4 -4,0 z M 216,52 l 4,0 0,4 -4,0 z M 228,52 l 4,0 0,4 -4,0 z M 8,56 l 4,0 0,4 -4,0 z M 36,56 l 4,0 0,4 -4,0 z M 44,56 l 4,0 0,4 -4,0 z M 48,56 l 4,0 0,4 -4,0 z M 52,56 l 4,0 0,4 -4,0 z M 64,56 l 4,0 0,4 -4,0 z M 72,56 l 4,0 0,4 -4,0 z M 76,56 l 4,0 0,4 -4,0 z M 88,56 l 4,0 0,4 -4,0 z M 100,56 l 4,0 0,4 -4,0 z M 108,56 l 4,0 0,4 -4,0 z M 116,56 l 4,0 0,4 -4,0 z M 124,56 l 4,0 0,4 -4,0 z M 128,56 l 4,0 0,4 -4,0 z M 136,56 l 4,0 0,4 -4,0 z M 148,56 l 4,0 0,4 -4,0 z M 156,56 l 4,0 0,4 -4,0 z M 160,56 l 4,0 0,4 -4,0 z M 172,56 l 4,0 0,4 -4,0 z M 196,56 l 4,0 0,4 -4,0 z M 212,56 l 4,0 0,4 -4,0 z M 228,56 l 4,0 0,4 -4,0 z M 8,60 l 4,0 0,4 -4,0 z M 12,60 l 4,0 0,4 -4,0 z M 16,60 l 4,0 0,4 -4,0 z M 20,60 l 4,0 0,4 -4,0 z M 28,60 l 4,0 0,4 -4,0 z M 36,60 l 4,0 0,4 -4,0 z M 52,60 l 4,0 0,4 -4,0 z M 56,60 l 4,0 0,4 -4,0 z M 64,60 l 4,0 0,4 -4,0 z M 72,60 l 4,0 0,4 -4,0 z M 76,60 l 4,0 0,4 -4,0 z M 84,60 l 4,0 0,4 -4,0 z M 96,60 l 4,0 0,4 -4,0 z M 108,60 l 4,0 0,4 -4,0 z M 112,60 l 4,0 0,4 -4,0 z M 124,60 l 4,0 0,4 -4,0 z M 128,60 l 4,0 0,4 -4,0 z M 132,60 l 4,0 0,4 -4,0 z M 136,60 l 4,0 0,4 -4,0 z M 144,60 l 4,0 0,4 -4,0 z M 156,60 l 4,0 0,4 -4,0 z M 164,60 l 4,0 0,4 -4,0 z M 172,60 l 4,0 0,4 -4,0 z M 188,60 l 4,0 0,4 -4,0 z M 204,60 l 4,0 0,4 -4,0 z M 216,60 l 4,0 0,4 -4,0 z M 4,64 l 4,0 0,4 -4,0 z M 8,64 l 4,0 0,4 -4,0 z M 12,64 l 4,0 0,4 -4,0 z M 16,64 l 4,0 0,4 -4,0 z M 24,64 l 4,0 0,4 -4,0 z M 44,64 l 4,0 0,4 -4,0 z M 48,64 l 4,0 0,4 -4,0 z M 52,64 l 4,0 0,4 -4,0 z M 56,64 l 4,0 0,4 -4,0 z M 60,64 l 4,0 0,4 -4,0 z M 64,64 l 4,0 0,4 -4,0 z M 80,64 l 4,0 0,4 -4,0 z M 88,64 l 4,0 0,4 -4,0 z M 92,64 l 4,0 0,4 -4,0 z M 100,64 l 4,0 0,4 -4,0 z M 104,64 l 4,0 0,4 -4,0 z M 108,64 l 4,0 0,4 -4,0 z M 112,64 l 4,0 0,4 -4,0 z M 120,64 l 4,0 0,4 -4,0 z M 124,64 l 4,0 0,4 -4,0 z M 132,64 l 4,0 0,4 -4,0 z M 148,64 l 4,0 0,4 -4,0 z M 156,64 l 4,0 0,4 -4,0 z M 160,64 l 4,0 0,4 -4,0 z M 168,64 l 4,0 0,4 -4,0 z M 180,64 l 4,0 0,4 -4,0 z M 184,64 l 4,0 0,4 -4,0 z M 188,64 l 4,0 0,4 -4,0 z M 196,64 l 4,0 0,4 -4,0 z M 200,64 l 4,0 0,4 -4,0 z M 208,64 l 4,0 0,4 -4,0 z M 216,64 l 4,0 0,4 -4,0 z M 220,64 l 4,0 0,4 -4,0 z M 224,64 l 4,0 0,4 -4,0 z M 12,68 l 4,0 0,4 -4,0 z M 20,68 l 4,0 0,4 -4,0 z M 24,68 l 4,0 0,4 -4,0 z M 28,68 l 4,0 0,4 -4,0 z M 32,68 l 4,0 0,4 -4,0 z M 36,68 l 4,0 0,4 -4,0 z M 40,68 l 4,0 0,4 -4,0 z M 52,68 l 4,0 0,4 -4,0 z M 56,68 l 4,0 0,4 -4,0 z M 76,68 l 4,0 0,4 -4,0 z M 80,68 l 4,0 0,4 -4,0 z M 84,68 l 4,0 0,4 -4,0 z M 96,68 l 4,0 0,4 -4,0 z M 100,68 l 4,0 0,4 -4,0 z M 116,68 l 4,0 0,4 -4,0 z M 132,68 l 4,0 0,4 -4,0 z M 136,68 l 4,0 0,4 -4,0 z M 144,68 l 4,0 0,4 -4,0 z M 156,68 l 4,0 0,4 -4,0 z M 176,68 l 4,0 0,4 -4,0 z M 180,68 l 4,0 0,4 -4,0 z M 184,68 l 4,0 0,4 -4,0 z M 188,68 l 4,0 0,4 -4,0 z M 200,68 l 4,0 0,4 -4,0 z M 204,68 l 4,0 0,4 -4,0 z M 212,68 l 4,0 0,4 -4,0 z M 224,68 l 4,0 0,4 -4,0 z M 4,72 l 4,0 0,4 -4,0 z M 8,72 l 4,0 0,4 -4,0 z M 16,72 l 4,0 0,4 -4,0 z M 24,72 l 4,0 0,4 -4,0 z M 36,72 l 4,0 0,4 -4,0 z M 44,72 l 4,0 0,4 -4,0 z M 48,72 l 4,0 0,4 -4,0 z M 60,72 l 4,0 0,4 -4,0 z M 64,72 l 4,0 0,4 -4,0 z M 68,72 l 4,0 0,4 -4,0 z M 84,72 l 4,0 0,4 -4,0 z M 100,72 l 4,0 0,4 -4,0 z M 104,72 l 4,0 0,4 -4,0 z M 108,72 l 4,0 0,4 -4,0 z M 112,72 l 4,0 0,4 -4,0 z M 116,72 l 4,0 0,4 -4,0 z M 120,72 l 4,0 0,4 -4,0 z M 132,72 l 4,0 0,4 -4,0 z M 136,72 l 4,0 0,4 -4,0 z M 152,72 l 4,0 0,4 -4,0 z M 156,72 l 4,0 0,4 -4,0 z M 160,72 l 4,0 0,4 -4,0 z M 168,72 l 4,0 0,4 -4,0 z M 188,72 l 4,0 0,4 -4,0 z M 200,72 l 4,0 0,4 -4,0 z M 216,72 l 4,0 0,4 -4,0 z M 220,72 l 4,0 0,4 -4,0 z M 228,72 l 4,0 0,4 -4,0 z M 4,76 l 4,0 0,4 -4,0 z M 12,76 l 4,0 0,4 -4,0 z M 16,76 l 4,0 0,4 -4,0 z M 28,76 l 4,0 0,4 -4,0 z M 36,76 l 4,0 0,4 -4,0 z M 64,76 l 4,0 0,4 -4,0 z M 68,76 l 4,0 0,4 -4,0 z M 76,76 l 4,0 0,4 -4,0 z M 84,76 l 4,0 0,4 -4,0 z M 88,76 l 4,0 0,4 -4,0 z M 92,76 l 4,0 0,4 -4,0 z M 104,76 l 4,0 0,4 -4,0 z M 116,76 l 4,0 0,4 -4,0 z M 128,76 l 4,0 0,4 -4,0 z M 152,76 l 4,0 0,4 -4,0 z M 160,76 l 4,0 0,4 -4,0 z M 164,76 l 4,0 0,4 -4,0 z M 168,76 l 4,0 0,4 -4,0 z M 172,76 l 4,0 0,4 -4,0 z M 176,76 l 4,0 0,4 -4,0 z M 180,76 l 4,0 0,4 -4,0 z M 184,76 l 4,0 0,4 -4,0 z M 188,76 l 4,0 0,4 -4,0 z M 196,76 l 4,0 0,4 -4,0 z M 204,76 l 4,0 0,4 -4,0 z M 212,76 l 4,0 0,4 -4,0 z M 216,76 l 4,0 0,4 -4,0 z M 220,76 l 4,0 0,4 -4,0 z M 224,76 l 4,0 0,4 -4,0 z M 228,76 l 4,0 0,4 -4,0 z M 4,80 l 4,0 0,4 -4,0 z M 8,80 l 4,0 0,4 -4,0 z M 20,80 l 4,0 0,4 -4,0 z M 24,80 l 4,0 0,4 -4,0 z M 40,80 l 4,0 0,4 -4,0 z M 56,80 l 4,0 0,4 -4,0 z M 68,80 l 4,0 0,4 -4,0 z M 80,80 l 4,0 0,4 -4,0 z M 88,80 l 4,0 0,4 -4,0 z M 96,80 l 4,0 0,4 -4,0 z M 100,80 l 4,0 0,4 -4,0 z M 112,80 l 4,0 0,4 -4,0 z M 120,80 l 4,0 0,4 -4,0 z M 128,80 l 4,0 0,4 -4,0 z M 140,80 l 4,0 0,4 -4,0 z M 144,80 l 4,0 0,4 -4,0 z M 148,80 l 4,0 0,4 -4,0 z M 152,80 l 4,0 0,4 -4,0 z M 156,80 l 4,0 0,4 -4,0 z M 160,80 l 4,0 0,4 -4,0 z M 164,80 l 4,0 0,4 -4,0 z M 168,80 l 4,0 0,4 -4,0 z M 180,80 l 4,0 0,4 -4,0 z M 192,80 l 4,0 0,4 -4,0 z M 200,80 l 4,0 0,4 -4,0 z M 204,80 l 4,0 0,4 -4,0 z M 208,80 l 4,0 0,4 -4,0 z M 220,80 l 4,0 0,4 -4,0 z M 224,80 l 4,0 0,4 -4,0 z M 4,84 l 4,0 0,4 -4,0 z M 8,84 l 4,0 0,4 -4,0 z M 12,84 l 4,0 0,4 -4,0 z M 16,84 l 4,0 0,4 -4,0 z M 24,84 l 4,0 0,4 -4,0 z M 28,84 l 4,0 0,4 -4,0 z M 32,84 l 4,0 0,4 -4,0 z M 44,84 l 4,0 0,4 -4,0 z M 52,84 l 4,0 0,4 -4,0 z M 64,84 l 4,0 0,4 -4,0 z M 72,84 l 4,0 0,4 -4,0 z M 80,84 l 4,0 0,4 -4,0 z M 88,84 l 4,0 0,4 -4,0 z M 100,84 l 4,0 0,4 -4,0 z M 112,84 l 4,0 0,4 -4,0 z M 116,84 l 4,0 0,4 -4,0 z M 132,84 l 4,0 0,4 -4,0 z M 136,84 l 4,0 0,4 -4,0 z M 172,84 l 4,0 0,4 -4,0 z M 176,84 l 4,0 0,4 -4,0 z M 184,84 l 4,0 0,4 -4,0 z M 196,84 l 4,0 0,4 -4,0 z M 200,84 l 4,0 0,4 -4,0 z M 216,84 l 4,0 0,4 -4,0 z M 4,88 l 4,0 0,4 -4,0 z M 12,88 l 4,0 0,4 -4,0 z M 40,88 l 4,0 0,4 -4,0 z M 44,88 l 4,0 0,4 -4,0 z M 48,88 l 4,0 0,4 -4,0 z M 56,88 l 4,0 0,4 -4,0 z M 68,88 l 4,0 0,4 -4,0 z M 72,88 l 4,0 0,4 -4,0 z M 92,88 l 4,0 0,4 -4,0 z M 96,88 l 4,0 0,4 -4,0 z M 104,88 l 4,0 0,4 -4,0 z M 108,88 l 4,0 0,4 -4,0 z M 132,88 l 4,0 0,4 -4,0 z M 136,88 l 4,0 0,4 -4,0 z M 152,88 l 4,0 0,4 -4,0 z M 160,88 l 4,0 0,4 -4,0 z M 168,88 l 4,0 0,4 -4,0 z M 172,88 l 4,0 0,4 -4,0 z M 188,88 l 4,0 0,4 -4,0 z M 192,88 l 4,0 0,4 -4,0 z M 196,88 l 4,0 0,4 -4,0 z M 200,88 l 4,0 0,4 -4,0 z M 216,88 l 4,0 0,4 -4,0 z M 224,88 l 4,0 0,4 -4,0 z M 228,88 l 4,0 0,4 -4,0 z M 4,92 l 4,0 0,4 -4,0 z M 12,92 l 4,0 0,4 -4,0 z M 16,92 l 4,0 0,4 -4,0 z M 28,92 l 4,0 0,4 -4,0 z M 32,92 l 4,0 0,4 -4,0 z M 36,92 l 4,0 0,4 -4,0 z M 40,92 l 4,0 0,4 -4,0 z M 48,92 l 4,0 0,4 -4,0 z M 52,92 l 4,0 0,4 -4,0 z M 56,92 l 4,0 0,4 -4,0 z M 64,92 l 4,0 0,4 -4,0 z M 68,92 l 4,0 0,4 -4,0 z M 72,92 l 4,0 0,4 -4,0 z M 80,92 l 4,0 0,4 -4,0 z M 92,92 l 4,0 0,4 -4,0 z M 108,92 l 4,0 0,4 -4,0 z M 112,92 l 4,0 0,4 -4,0 z M 116,92 l 4,0 0,4 -4,0 z M 128,92 l 4,0 0,4 -4,0 z M 136,92 l 4,0 0,4 -4,0 z M 140,92 l 4,0 0,4 -4,0 z M 144,92 l 4,0 0,4 -4,0 z M 148,92 l 4,0 0,4 -4,0 z M 180,92 l 4,0 0,4 -4,0 z M 188,92 l 4,0 0,4 -4,0 z M 192,92 l 4,0 0,4 -4,0 z M 212,92 l 4,0 0,4 -4,0 z M 220,92 l 4,0 0,4 -4,0 z M 224,92 l 4,0 0,4 -4,0 z M 228,92 l 4,0 0,4 -4,0 z M 16,96 l 4,0 0,4 -4,0 z M 20,96 l 4,0 0,4 -4,0 z M 32,96 l 4,0 0,4 -4,0 z M 36,96 l 4,0 0,4 -4,0 z M 40,96 l 4,0 0,4 -4,0 z M 60,96 l 4,0 0,4 -4,0 z M 68,96 l 4,0 0,4 -4,0 z M 72,96 l 4,0 0,4 -4,0 z M 76,96 l 4,0 0,4 -4,0 z M 88,96 l 4,0 0,4 -4,0 z M 92,96 l 4,0 0,4 -4,0 z M 96,96 l 4,0 0,4 -4,0 z M 104,96 l 4,0 0,4 -4,0 z M 108,96 l 4,0 0,4 -4,0 z M 112,96 l 4,0 0,4 -4,0 z M 124,96 l 4,0 0,4 -4,0 z M 128,96 l 4,0 0,4 -4,0 z M 132,96 l 4,0 0,4 -4,0 z M 148,96 l 4,0 0,4 -4,0 z M 152,96 l 4,0 0,4 -4,0 z M 156,96 l 4,0 0,4 -4,0 z M 160,96 l 4,0 0,4 -4,0 z M 164,96 l 4,0 0,4 -4,0 z M 188,96 l 4,0 0,4 -4,0 z M 204,96 l 4,0 0,4 -4,0 z M 208,96 l 4,0 0,4 -4,0 z M 224,96 l 4,0 0,4 -4,0 z M 228,96 l 4,0 0,4 -4,0 z M 4,100 l 4,0 0,4 -4,0 z M 8,100 l 4,0 0,4 -4,0 z M 12,100 l 4,0 0,4 -4,0 z M 16,100 l 4,0 0,4 -4,0 z M 28,100 l 4,0 0,4 -4,0 z M 64,100 l 4,0 0,4 -4,0 z M 72,100 l 4,0 0,4 -4,0 z M 84,100 l 4,0 0,4 -4,0 z M 100,100 l 4,0 0,4 -4,0 z M 120,100 l 4,0 0,4 -4,0 z M 124,100 l 4,0 0,4 -4,0 z M 128,100 l 4,0 0,4 -4,0 z M 136,100 l 4,0 0,4 -4,0 z M 144,100 l 4,0 0,4 -4,0 z M 148,100 l 4,0 0,4 -4,0 z M 160,100 l 4,0 0,4 -4,0 z M 164,100 l 4,0 0,4 -4,0 z M 172,100 l 4,0 0,4 -4,0 z M 176,100 l 4,0 0,4 -4,0 z M 192,100 l 4,0 0,4 -4,0 z M 196,100 l 4,0 0,4 -4,0 z M 204,100 l 4,0 0,4 -4,0 z M 224,100 l 4,0 0,4 -4,0 z M 4,104 l 4,0 0,4 -4,0 z M 8,104 l 4,0 0,4 -4,0 z M 12,104 l 4,0 0,4 -4,0 z M 32,104 l 4,0 0,4 -4,0 z M 40,104 l 4,0 0,4 -4,0 z M 48,104 l 4,0 0,4 -4,0 z M 60,104 l 4,0 0,4 -4,0 z M 64,104 l 4,0 0,4 -4,0 z M 68,104 l 4,0 0,4 -4,0 z M 84,104 l 4,0 0,4 -4,0 z M 88,104 l 4,0 0,4 -4,0 z M 92,104 l 4,0 0,4 -4,0 z M 96,104 l 4,0 0,4 -4,0 z M 100,104 l 4,0 0,4 -4,0 z M 104,104 l 4,0 0,4 -4,0 z M 112,104 l 4,0 0,4 -4,0 z M 116,104 l 4,0 0,4 -4,0 z M 120,104 l 4,0 0,4 -4,0 z M 124,104 l 4,0 0,4 -4,0 z M 128,104 l 4,0 0,4 -4,0 z M 132,104 l 4,0 0,4 -4,0 z M 144,104 l 4,0 0,4 -4,0 z M 148,104 l 4,0 0,4 -4,0 z M 160,104 l 4,0 0,4 -4,0 z M 168,104 l 4,0 0,4 -4,0 z M 176,104 l 4,0 0,4 -4,0 z M 184,104 l 4,0 0,4 -4,0 z M 188,104 l 4,0 0,4 -4,0 z M 192,104 l 4,0 0,4 -4,0 z M 200,104 l 4,0 0,4 -4,0 z M 204,104 l 4,0 0,4 -4,0 z M 208,104 l 4,0 0,4 -4,0 z M 220,104 l 4,0 0,4 -4,0 z M 228,104 l 4,0 0,4 -4,0 z M 4,108 l 4,0 0,4 -4,0 z M 12,108 l 4,0 0,4 -4,0 z M 20,108 l 4,0 0,4 -4,0 z M 24,108 l 4,0 0,4 -4,0 z M 28,108 l 4,0 0,4 -4,0 z M 32,108 l 4,0 0,4 -4,0 z M 36,108 l 4,0 0,4 -4,0 z M 40,108 l 4,0 0,4 -4,0 z M 48,108 l 4,0 0,4 -4,0 z M 64,108 l 4,0 0,4 -4,0 z M 72,108 l 4,0 0,4 -4,0 z M 88,108 l 4,0 0,4 -4,0 z M 96,108 l 4,0 0,4 -4,0 z M 104,108 l 4,0 0,4 -4,0 z M 108,108 l 4,0 0,4 -4,0 z M 112,108 l 4,0 0,4 -4,0 z M 116,108 l 4,0 0,4 -4,0 z M 120,108 l 4,0 0,4 -4,0 z M 124,108 l 4,0 0,4 -4,0 z M 128,108 l 4,0 0,4 -4,0 z M 136,108 l 4,0 0,4 -4,0 z M 140,108 l 4,0 0,4 -4,0 z M 148,108 l 4,0 0,4 -4,0 z M 156,108 l 4,0 0,4 -4,0 z M 164,108 l 4,0 0,4 -4,0 z M 184,108 l 4,0 0,4 -4,0 z M 188,108 l 4,0 0,4 -4,0 z M 196,108 l 4,0 0,4 -4,0 z M 200,108 l 4,0 0,4 -4,0 z M 204,108 l 4,0 0,4 -4,0 z M 208,108 l 4,0 0,4 -4,0 z M 212,108 l 4,0 0,4 -4,0 z M 216,108 l 4,0 0,4 -4,0 z M 220,108 l 4,0 0,4 -4,0 z M 224,108 l 4,0 0,4 -4,0 z M 4,112 l 4,0 0,4 -4,0 z M 8,112 l 4,0 0,4 -4,0 z M 16,112 l 4,0 0,4 -4,0 z M 20,112 l 4,0 0,4 -4,0 z M 36,112 l 4,0 0,4 -4,0 z M 44,112 l 4,0 0,4 -4,0 z M 60,112 l 4,0 0,4 -4,0 z M 64,112 l 4,0 0,4 -4,0 z M 68,112 l 4,0 0,4 -4,0 z M 80,112 l 4,0 0,4 -4,0 z M 84,112 l 4,0 0,4 -4,0 z M 96,112 l 4,0 0,4 -4,0 z M 100,112 l 4,0 0,4 -4,0 z M 108,112 l 4,0 0,4 -4,0 z M 124,112 l 4,0 0,4 -4,0 z M 132,112 l 4,0 0,4 -4,0 z M 148,112 l 4,0 0,4 -4,0 z M 152,112 l 4,0 0,4 -4,0 z M 160,112 l 4,0 0,4 -4,0 z M 164,112 l 4,0 0,4 -4,0 z M 172,112 l 4,0 0,4 -4,0 z M 192,112 l 4,0 0,4 -4,0 z M 196,112 l 4,0 0,4 -4,0 z M 212,112 l 4,0 0,4 -4,0 z M 216,112 l 4,0 0,4 -4,0 z M 220,112 l 4,0 0,4 -4,0 z M 224,112 l 4,0 0,4 -4,0 z M 228,112 l 4,0 0,4 -4,0 z M 16,116 l 4,0 0,4 -4,0 z M 20,116 l 4,0 0,4 -4,0 z M 28,116 l 4,0 0,4 -4,0 z M 36,116 l 4,0 0,4 -4,0 z M 40,116 l 4,0 0,4 -4,0 z M 44,116 l 4,0 0,4 -4,0 z M 48,116 l 4,0 0,4 -4,0 z M 52,116 l 4,0 0,4 -4,0 z M 60,116 l 4,0 0,4 -4,0 z M 68,116 l 4,0 0,4 -4,0 z M 72,116 l 4,0 0,4 -4,0 z M 88,116 l 4,0 0,4 -4,0 z M 100,116 l 4,0 0,4 -4,0 z M 108,116 l 4,0 0,4 -4,0 z M 116,116 l 4,0 0,4 -4,0 z M 124,116 l 4,0 0,4 -4,0 z M 128,116 l 4,0 0,4 -4,0 z M 136,116 l 4,0 0,4 -4,0 z M 148,116 l 4,0 0,4 -4,0 z M 160,116 l 4,0 0,4 -4,0 z M 168,116 l 4,0 0,4 -4,0 z M 172,116 l 4,0 0,4 -4,0 z M 180,116 l 4,0 0,4 -4,0 z M 184,116 l 4,0 0,4 -4,0 z M 188,116 l 4,0 0,4 -4,0 z M 192,116 l 4,0 0,4 -4,0 z M 196,116 l 4,0 0,4 -4,0 z M 204,116 l 4,0 0,4 -4,0 z M 212,116 l 4,0 0,4 -4,0 z M 220,116 l 4,0 0,4 -4,0 z M 224,116 l 4,0 0,4 -4,0 z M 12,120 l 4,0 0,4 -4,0 z M 20,120 l 4,0 0,4 -4,0 z M 36,120 l 4,0 0,4 -4,0 z M 44,120 l 4,0 0,4 -4,0 z M 48,120 l 4,0 0,4 -4,0 z M 52,120 l 4,0 0,4 -4,0 z M 56,120 l 4,0 0,4 -4,0 z M 60,120 l 4,0 0,4 -4,0 z M 64,120 l 4,0 0,4 -4,0 z M 76,120 l 4,0 0,4 -4,0 z M 80,120 l 4,0 0,4 -4,0 z M 84,120 l 4,0 0,4 -4,0 z M 96,120 l 4,0 0,4 -4,0 z M 104,120 l 4,0 0,4 -4,0 z M 108,120 l 4,0 0,4 -4,0 z M 124,120 l 4,0 0,4 -4,0 z M 136,120 l 4,0 0,4 -4,0 z M 148,120 l 4,0 0,4 -4,0 z M 168,120 l 4,0 0,4 -4,0 z M 172,120 l 4,0 0,4 -4,0 z M 184,120 l 4,0 0,4 -4,0 z M 192,120 l 4,0 0,4 -4,0 z M 196,120 l 4,0 0,4 -4,0 z M 212,120 l 4,0 0,4 -4,0 z M 216,120 l 4,0 0,4 -4,0 z M 8,124 l 4,0 0,4 -4,0 z M 16,124 l 4,0 0,4 -4,0 z M 20,124 l 4,0 0,4 -4,0 z M 24,124 l 4,0 0,4 -4,0 z M 28,124 l 4,0 0,4 -4,0 z M 32,124 l 4,0 0,4 -4,0 z M 36,124 l 4,0 0,4 -4,0 z M 44,124 l 4,0 0,4 -4,0 z M 52,124 l 4,0 0,4 -4,0 z M 56,124 l 4,0 0,4 -4,0 z M 64,124 l 4,0 0,4 -4,0 z M 76,124 l 4,0 0,4 -4,0 z M 88,124 l 4,0 0,4 -4,0 z M 96,124 l 4,0 0,4 -4,0 z M 100,124 l 4,0 0,4 -4,0 z M 108,124 l 4,0 0,4 -4,0 z M 112,124 l 4,0 0,4 -4,0 z M 116,124 l 4,0 0,4 -4,0 z M 120,124 l 4,0 0,4 -4,0 z M 124,124 l 4,0 0,4 -4,0 z M 128,124 l 4,0 0,4 -4,0 z M 132,124 l 4,0 0,4 -4,0 z M 136,124 l 4,0 0,4 -4,0 z M 140,124 l 4,0 0,4 -4,0 z M 152,124 l 4,0 0,4 -4,0 z M 156,124 l 4,0 0,4 -4,0 z M 164,124 l 4,0 0,4 -4,0 z M 172,124 l 4,0 0,4 -4,0 z M 180,124 l 4,0 0,4 -4,0 z M 184,124 l 4,0 0,4 -4,0 z M 196,124 l 4,0 0,4 -4,0 z M 200,124 l 4,0 0,4 -4,0 z M 204,124 l 4,0 0,4 -4,0 z M 208,124 l 4,0 0,4 -4,0 z M 212,124 l 4,0 0,4 -4,0 z M 216,124 l 4,0 0,4 -4,0 z M 4,128 l 4,0 0,4 -4,0 z M 20,128 l 4,0 0,4 -4,0 z M 24,128 l 4,0 0,4 -4,0 z M 32,128 l 4,0 0,4 -4,0 z M 36,128 l 4,0 0,4 -4,0 z M 60,128 l 4,0 0,4 -4,0 z M 64,128 l 4,0 0,4 -4,0 z M 76,128 l 4,0 0,4 -4,0 z M 80,128 l 4,0 0,4 -4,0 z M 92,128 l 4,0 0,4 -4,0 z M 96,128 l 4,0 0,4 -4,0 z M 100,128 l 4,0 0,4 -4,0 z M 108,128 l 4,0 0,4 -4,0 z M 124,128 l 4,0 0,4 -4,0 z M 128,128 l 4,0 0,4 -4,0 z M 132,128 l 4,0 0,4 -4,0 z M 148,128 l 4,0 0,4 -4,0 z M 152,128 l 4,0 0,4 -4,0 z M 156,128 l 4,0 0,4 -4,0 z M 160,128 l 4,0 0,4 -4,0 z M 168,128 l 4,0 0,4 -4,0 z M 192,128 l 4,0 0,4 -4,0 z M 196,128 l 4,0 0,4 -4,0 z M 204,128 l 4,0 0,4 -4,0 z M 208,128 l 4,0 0,4 -4,0 z M 224,128 l 4,0 0,4 -4,0 z M 8,132 l 4,0 0,4 -4,0 z M 12,132 l 4,0 0,4 -4,0 z M 28,132 l 4,0 0,4 -4,0 z M 32,132 l 4,0 0,4 -4,0 z M 60,132 l 4,0 0,4 -4,0 z M 64,132 l 4,0 0,4 -4,0 z M 68,132 l 4,0 0,4 -4,0 z M 80,132 l 4,0 0,4 -4,0 z M 88,132 l 4,0 0,4 -4,0 z M 92,132 l 4,0 0,4 -4,0 z M 96,132 l 4,0 0,4 -4,0 z M 100,132 l 4,0 0,4 -4,0 z M 108,132 l 4,0 0,4 -4,0 z M 112,132 l 4,0 0,4 -4,0 z M 116,132 l 4,0 0,4 -4,0 z M 124,132 l 4,0 0,4 -4,0 z M 128,132 l 4,0 0,4 -4,0 z M 136,132 l 4,0 0,4 -4,0 z M 144,132 l 4,0 0,4 -4,0 z M 164,132 l 4,0 0,4 -4,0 z M 172,132 l 4,0 0,4 -4,0 z M 180,132 l 4,0 0,4 -4,0 z M 184,132 l 4,0 0,4 -4,0 z M 192,132 l 4,0 0,4 -4,0 z M 196,132 l 4,0 0,4 -4,0 z M 200,132 l 4,0 0,4 -4,0 z M 204,132 l 4,0 0,4 -4,0 z M 212,132 l 4,0 0,4 -4,0 z M 220,132 l 4,0 0,4 -4,0 z M 224,132 l 4,0 0,4 -4,0 z M 12,136 l 4,0 0,4 -4,0 z M 32,136 l 4,0 0,4 -4,0 z M 52,136 l 4,0 0,4 -4,0 z M 64,136 l 4,0 0,4 -4,0 z M 68,136 l 4,0 0,4 -4,0 z M 92,136 l 4,0 0,4 -4,0 z M 104,136 l 4,0 0,4 -4,0 z M 108,136 l 4,0 0,4 -4,0 z M 116,136 l 4,0 0,4 -4,0 z M 124,136 l 4,0 0,4 -4,0 z M 136,136 l 4,0 0,4 -4,0 z M 140,136 l 4,0 0,4 -4,0 z M 148,136 l 4,0 0,4 -4,0 z M 152,136 l 4,0 0,4 -4,0 z M 156,136 l 4,0 0,4 -4,0 z M 160,136 l 4,0 0,4 -4,0 z M 168,136 l 4,0 0,4 -4,0 z M 196,136 l 4,0 0,4 -4,0 z M 220,136 l 4,0 0,4 -4,0 z M 224,136 l 4,0 0,4 -4,0 z M 228,136 l 4,0 0,4 -4,0 z M 4,140 l 4,0 0,4 -4,0 z M 12,140 l 4,0 0,4 -4,0 z M 24,140 l 4,0 0,4 -4,0 z M 28,140 l 4,0 0,4 -4,0 z M 40,140 l 4,0 0,4 -4,0 z M 56,140 l 4,0 0,4 -4,0 z M 60,140 l 4,0 0,4 -4,0 z M 64,140 l 4,0 0,4 -4,0 z M 72,140 l 4,0 0,4 -4,0 z M 76,140 l 4,0 0,4 -4,0 z M 84,140 l 4,0 0,4 -4,0 z M 88,140 l 4,0 0,4 -4,0 z M 104,140 l 4,0 0,4 -4,0 z M 112,140 l 4,0 0,4 -4,0 z M 124,140 l 4,0 0,4 -4,0 z M 132,140 l 4,0 0,4 -4,0 z M 136,140 l 4,0 0,4 -4,0 z M 140,140 l 4,0 0,4 -4,0 z M 144,140 l 4,0 0,4 -4,0 z M 164,140 l 4,0 0,4 -4,0 z M 184,140 l 4,0 0,4 -4,0 z M 196,140 l 4,0 0,4 -4,0 z M 200,140 l 4,0 0,4 -4,0 z M 204,140 l 4,0 0,4 -4,0 z M 208,140 l 4,0 0,4 -4,0 z M 212,140 l 4,0 0,4 -4,0 z M 220,140 l 4,0 0,4 -4,0 z M 228,140 l 4,0 0,4 -4,0 z M 4,144 l 4,0 0,4 -4,0 z M 16,144 l 4,0 0,4 -4,0 z M 24,144 l 4,0 0,4 -4,0 z M 32,144 l 4,0 0,4 -4,0 z M 36,144 l 4,0 0,4 -4,0 z M 40,144 l 4,0 0,4 -4,0 z M 44,144 l 4,0 0,4 -4,0 z M 52,144 l 4,0 0,4 -4,0 z M 60,144 l 4,0 0,4 -4,0 z M 76,144 l 4,0 0,4 -4,0 z M 80,144 l 4,0 0,4 -4,0 z M 88,144 l 4,0 0,4 -4,0 z M 92,144 l 4,0 0,4 -4,0 z M 96,144 l 4,0 0,4 -4,0 z M 100,144 l 4,0 0,4 -4,0 z M 104,144 l 4,0 0,4 -4,0 z M 108,144 l 4,0 0,4 -4,0 z M 124,144 l 4,0 0,4 -4,0 z M 132,144 l 4,0 0,4 -4,0 z M 140,144 l 4,0 0,4 -4,0 z M 144,144 l 4,0 0,4 -4,0 z M 152,144 l 4,0 0,4 -4,0 z M 156,144 l 4,0 0,4 -4,0 z M 160,144 l 4,0 0,4 -4,0 z M 164,144 l 4,0 0,4 -4,0 z M 168,144 l 4,0 0,4 -4,0 z M 180,144 l 4,0 0,4 -4,0 z M 184,144 l 4,0 0,4 -4,0 z M 192,144 l 4,0 0,4 -4,0 z M 204,144 l 4,0 0,4 -4,0 z M 212,144 l 4,0 0,4 -4,0 z M 216,144 l 4,0 0,4 -4,0 z M 228,144 l 4,0 0,4 -4,0 z M 4,148 l 4,0 0,4 -4,0 z M 12,148 l 4,0 0,4 -4,0 z M 16,148 l 4,0 0,4 -4,0 z M 28,148 l 4,0 0,4 -4,0 z M 32,148 l 4,0 0,4 -4,0 z M 36,148 l 4,0 0,4 -4,0 z M 56,148 l 4,0 0,4 -4,0 z M 60,148 l 4,0 0,4 -4,0 z M 72,148 l 4,0 0,4 -4,0 z M 76,148 l 4,0 0,4 -4,0 z M 88,148 l 4,0 0,4 -4,0 z M 96,148 l 4,0 0,4 -4,0 z M 100,148 l 4,0 0,4 -4,0 z M 104,148 l 4,0 0,4 -4,0 z M 108,148 l 4,0 0,4 -4,0 z M 112,148 l 4,0 0,4 -4,0 z M 120,148 l 4,0 0,4 -4,0 z M 124,148 l 4,0 0,4 -4,0 z M 132,148 l 4,0 0,4 -4,0 z M 160,148 l 4,0 0,4 -4,0 z M 164,148 l 4,0 0,4 -4,0 z M 168,148 l 4,0 0,4 -4,0 z M 172,148 l 4,0 0,4 -4,0 z M 188,148 l 4,0 0,4 -4,0 z M 192,148 l 4,0 0,4 -4,0 z M 196,148 l 4,0 0,4 -4,0 z M 200,148 l 4,0 0,4 -4,0 z M 208,148 l 4,0 0,4 -4,0 z M 212,148 l 4,0 0,4 -4,0 z M 228,148 l 4,0 0,4 -4,0 z M 4,152 l 4,0 0,4 -4,0 z M 8,152 l 4,0 0,4 -4,0 z M 12,152 l 4,0 0,4 -4,0 z M 16,152 l 4,0 0,4 -4,0 z M 40,152 l 4,0 0,4 -4,0 z M 48,152 l 4,0 0,4 -4,0 z M 60,152 l 4,0 0,4 -4,0 z M 64,152 l 4,0 0,4 -4,0 z M 80,152 l 4,0 0,4 -4,0 z M 84,152 l 4,0 0,4 -4,0 z M 88,152 l 4,0 0,4 -4,0 z M 92,152 l 4,0 0,4 -4,0 z M 100,152 l 4,0 0,4 -4,0 z M 104,152 l 4,0 0,4 -4,0 z M 112,152 l 4,0 0,4 -4,0 z M 128,152 l 4,0 0,4 -4,0 z M 132,152 l 4,0 0,4 -4,0 z M 136,152 l 4,0 0,4 -4,0 z M 156,152 l 4,0 0,4 -4,0 z M 160,152 l 4,0 0,4 -4,0 z M 172,152 l 4,0 0,4 -4,0 z M 196,152 l 4,0 0,4 -4,0 z M 200,152 l 4,0 0,4 -4,0 z M 204,152 l 4,0 0,4 -4,0 z M 208,152 l 4,0 0,4 -4,0 z M 216,152 l 4,0 0,4 -4,0 z M 228,152 l 4,0 0,4 -4,0 z M 4,156 l 4,0 0,4 -4,0 z M 12,156 l 4,0 0,4 -4,0 z M 28,156 l 4,0 0,4 -4,0 z M 36,156 l 4,0 0,4 -4,0 z M 40,156 l 4,0 0,4 -4,0 z M 56,156 l 4,0 0,4 -4,0 z M 60,156 l 4,0 0,4 -4,0 z M 72,156 l 4,0 0,4 -4,0 z M 84,156 l 4,0 0,4 -4,0 z M 92,156 l 4,0 0,4 -4,0 z M 96,156 l 4,0 0,4 -4,0 z M 100,156 l 4,0 0,4 -4,0 z M 112,156 l 4,0 0,4 -4,0 z M 116,156 l 4,0 0,4 -4,0 z M 120,156 l 4,0 0,4 -4,0 z M 124,156 l 4,0 0,4 -4,0 z M 128,156 l 4,0 0,4 -4,0 z M 136,156 l 4,0 0,4 -4,0 z M 140,156 l 4,0 0,4 -4,0 z M 144,156 l 4,0 0,4 -4,0 z M 148,156 l 4,0 0,4 -4,0 z M 156,156 l 4,0 0,4 -4,0 z M 160,156 l 4,0 0,4 -4,0 z M 172,156 l 4,0 0,4 -4,0 z M 176,156 l 4,0 0,4 -4,0 z M 192,156 l 4,0 0,4 -4,0 z M 196,156 l 4,0 0,4 -4,0 z M 200,156 l 4,0 0,4 -4,0 z M 224,156 l 4,0 0,4 -4,0 z M 4,160 l 4,0 0,4 -4,0 z M 12,160 l 4,0 0,4 -4,0 z M 24,160 l 4,0 0,4 -4,0 z M 36,160 l 4,0 0,4 -4,0 z M 40,160 l 4,0 0,4 -4,0 z M 44,160 l 4,0 0,4 -4,0 z M 56,160 l 4,0 0,4 -4,0 z M 60,160 l 4,0 0,4 -4,0 z M 64,160 l 4,0 0,4 -4,0 z M 72,160 l 4,0 0,4 -4,0 z M 76,160 l 4,0 0,4 -4,0 z M 80,160 l 4,0 0,4 -4,0 z M 84,160 l 4,0 0,4 -4,0 z M 88,160 l 4,0 0,4 -4,0 z M 92,160 l 4,0 0,4 -4,0 z M 100,160 l 4,0 0,4 -4,0 z M 112,160 l 4,0 0,4 -4,0 z M 116,160 l 4,0 0,4 -4,0 z M 120,160 l 4,0 0,4 -4,0 z M 124,160 l 4,0 0,4 -4,0 z M 132,160 l 4,0 0,4 -4,0 z M 136,160 l 4,0 0,4 -4,0 z M 140,160 l 4,0 0,4 -4,0 z M 152,160 l 4,0 0,4 -4,0 z M 156,160 l 4,0 0,4 -4,0 z M 160,160 l 4,0 0,4 -4,0 z M 168,160 l 4,0 0,4 -4,0 z M 172,160 l 4,0 0,4 -4,0 z M 180,160 l 4,0 0,4 -4,0 z M 188,160 l 4,0 0,4 -4,0 z M 204,160 l 4,0 0,4 -4,0 z M 212,160 l 4,0 0,4 -4,0 z M 216,160 l 4,0 0,4 -4,0 z M 220,160 l 4,0 0,4 -4,0 z M 224,160 l 4,0 0,4 -4,0 z M 4,164 l 4,0 0,4 -4,0 z M 8,164 l 4,0 0,4 -4,0 z M 16,164 l 4,0 0,4 -4,0 z M 20,164 l 4,0 0,4 -4,0 z M 28,164 l 4,0 0,4 -4,0 z M 36,164 l 4,0 0,4 -4,0 z M 40,164 l 4,0 0,4 -4,0 z M 44,164 l 4,0 0,4 -4,0 z M 52,164 l 4,0 0,4 -4,0 z M 56,164 l 4,0 0,4 -4,0 z M 64,164 l 4,0 0,4 -4,0 z M 68,164 l 4,0 0,4 -4,0 z M 84,164 l 4,0 0,4 -4,0 z M 88,164 l 4,0 0,4 -4,0 z M 100,164 l 4,0 0,4 -4,0 z M 112,164 l 4,0 0,4 -4,0 z M 120,164 l 4,0 0,4 -4,0 z M 124,164 l 4,0 0,4 -4,0 z M 128,164 l 4,0 0,4 -4,0 z M 132,164 l 4,0 0,4 -4,0 z M 136,164 l 4,0 0,4 -4,0 z M 140,164 l 4,0 0,4 -4,0 z M 152,164 l 4,0 0,4 -4,0 z M 168,164 l 4,0 0,4 -4,0 z M 184,164 l 4,0 0,4 -4,0 z M 196,164 l 4,0 0,4 -4,0 z M 212,164 l 4,0 0,4 -4,0 z M 220,164 l 4,0 0,4 -4,0 z M 12,168 l 4,0 0,4 -4,0 z M 16,168 l 4,0 0,4 -4,0 z M 32,168 l 4,0 0,4 -4,0 z M 40,168 l 4,0 0,4 -4,0 z M 44,168 l 4,0 0,4 -4,0 z M 56,168 l 4,0 0,4 -4,0 z M 64,168 l 4,0 0,4 -4,0 z M 80,168 l 4,0 0,4 -4,0 z M 88,168 l 4,0 0,4 -4,0 z M 100,168 l 4,0 0,4 -4,0 z M 108,168 l 4,0 0,4 -4,0 z M 124,168 l 4,0 0,4 -4,0 z M 128,168 l 4,0 0,4 -4,0 z M 132,168 l 4,0 0,4 -4,0 z M 148,168 l 4,0 0,4 -4,0 z M 152,168 l 4,0 0,4 -4,0 z M 156,168 l 4,0 0,4 -4,0 z M 160,168 l 4,0 0,4 -4,0 z M 164,168 l 4,0 0,4 -4,0 z M 168,168 l 4,0 0,4 -4,0 z M 172,168 l 4,0 0,4 -4,0 z M 176,168 l 4,0 0,4 -4,0 z M 180,168 l 4,0 0,4 -4,0 z M 184,168 l 4,0 0,4 -4,0 z M 196,168 l 4,0 0,4 -4,0 z M 208,168 l 4,0 0,4 -4,0 z M 220,168 l 4,0 0,4 -4,0 z M 228,168 l 4,0 0,4 -4,0 z M 4,172 l 4,0 0,4 -4,0 z M 8,172 l 4,0 0,4 -4,0 z M 12,172 l 4,0 0,4 -4,0 z M 20,172 l 4,0 0,4 -4,0 z M 24,172 l 4,0 0,4 -4,0 z M 28,172 l 4,0 0,4 -4,0 z M 40,172 l 4,0 0,4 -4,0 z M 44,172 l 4,0 0,4 -4,0 z M 56,172 l 4,0 0,4 -4,0 z M 60,172 l 4,0 0,4 -4,0 z M 64,172 l 4,0 0,4 -4,0 z M 76,172 l 4,0 0,4 -4,0 z M 80,172 l 4,0 0,4 -4,0 z M 92,172 l 4,0 0,4 -4,0 z M 112,172 l 4,0 0,4 -4,0 z M 116,172 l 4,0 0,4 -4,0 z M 128,172 l 4,0 0,4 -4,0 z M 132,172 l 4,0 0,4 -4,0 z M 140,172 l 4,0 0,4 -4,0 z M 144,172 l 4,0 0,4 -4,0 z M 164,172 l 4,0 0,4 -4,0 z M 172,172 l 4,0 0,4 -4,0 z M 176,172 l 4,0 0,4 -4,0 z M 180,172 l 4,0 0,4 -4,0 z M 184,172 l 4,0 0,4 -4,0 z M 188,172 l 4,0 0,4 -4,0 z M 196,172 l 4,0 0,4 -4,0 z M 216,172 l 4,0 0,4 -4,0 z M 224,172 l 4,0 0,4 -4,0 z M 8,176 l 4,0 0,4 -4,0 z M 12,176 l 4,0 0,4 -4,0 z M 20,176 l 4,0 0,4 -4,0 z M 32,176 l 4,0 0,4 -4,0 z M 36,176 l 4,0 0,4 -4,0 z M 44,176 l 4,0 0,4 -4,0 z M 48,176 l 4,0 0,4 -4,0 z M 52,176 l 4,0 0,4 -4,0 z M 64,176 l 4,0 0,4 -4,0 z M 68,176 l 4,0 0,4 -4,0 z M 72,176 l 4,0 0,4 -4,0 z M 76,176 l 4,0 0,4 -4,0 z M 80,176 l 4,0 0,4 -4,0 z M 84,176 l 4,0 0,4 -4,0 z M 88,176 l 4,0 0,4 -4,0 z M 92,176 l 4,0 0,4 -4,0 z M 96,176 l 4,0 0,4 -4,0 z M 108,176 l 4,0 0,4 -4,0 z M 112,176 l 4,0 0,4 -4,0 z M 116,176 l 4,0 0,4 -4,0 z M 120,176 l 4,0 0,4 -4,0 z M 124,176 l 4,0 0,4 -4,0 z M 148,176 l 4,0 0,4 -4,0 z M 152,176 l 4,0 0,4 -4,0 z M 160,176 l 4,0 0,4 -4,0 z M 164,176 l 4,0 0,4 -4,0 z M 172,176 l 4,0 0,4 -4,0 z M 176,176 l 4,0 0,4 -4,0 z M 212,176 l 4,0 0,4 -4,0 z M 216,176 l 4,0 0,4 -4,0 z M 220,176 l 4,0 0,4 -4,0 z M 224,176 l 4,0 0,4 -4,0 z M 228,176 l 4,0 0,4 -4,0 z M 8,180 l 4,0 0,4 -4,0 z M 12,180 l 4,0 0,4 -4,0 z M 16,180 l 4,0 0,4 -4,0 z M 20,180 l 4,0 0,4 -4,0 z M 24,180 l 4,0 0,4 -4,0 z M 28,180 l 4,0 0,4 -4,0 z M 32,180 l 4,0 0,4 -4,0 z M 40,180 l 4,0 0,4 -4,0 z M 48,180 l 4,0 0,4 -4,0 z M 56,180 l 4,0 0,4 -4,0 z M 60,180 l 4,0 0,4 -4,0 z M 64,180 l 4,0 0,4 -4,0 z M 76,180 l 4,0 0,4 -4,0 z M 80,180 l 4,0 0,4 -4,0 z M 92,180 l 4,0 0,4 -4,0 z M 100,180 l 4,0 0,4 -4,0 z M 104,180 l 4,0 0,4 -4,0 z M 108,180 l 4,0 0,4 -4,0 z M 116,180 l 4,0 0,4 -4,0 z M 128,180 l 4,0 0,4 -4,0 z M 132,180 l 4,0 0,4 -4,0 z M 136,180 l 4,0 0,4 -4,0 z M 140,180 l 4,0 0,4 -4,0 z M 144,180 l 4,0 0,4 -4,0 z M 148,180 l 4,0 0,4 -4,0 z M 156,180 l 4,0 0,4 -4,0 z M 172,180 l 4,0 0,4 -4,0 z M 176,180 l 4,0 0,4 -4,0 z M 180,180 l 4,0 0,4 -4,0 z M 184,180 l 4,0 0,4 -4,0 z M 188,180 l 4,0 0,4 -4,0 z M 192,180 l 4,0 0,4 -4,0 z M 196,180 l 4,0 0,4 -4,0 z M 200,180 l 4,0 0,4 -4,0 z M 208,180 l 4,0 0,4 -4,0 z M 216,180 l 4,0 0,4 -4,0 z M 224,180 l 4,0 0,4 -4,0 z M 4,184 l 4,0 0,4 -4,0 z M 8,184 l 4,0 0,4 -4,0 z M 12,184 l 4,0 0,4 -4,0 z M 16,184 l 4,0 0,4 -4,0 z M 32,184 l 4,0 0,4 -4,0 z M 36,184 l 4,0 0,4 -4,0 z M 40,184 l 4,0 0,4 -4,0 z M 48,184 l 4,0 0,4 -4,0 z M 52,184 l 4,0 0,4 -4,0 z M 64,184 l 4,0 0,4 -4,0 z M 72,184 l 4,0 0,4 -4,0 z M 76,184 l 4,0 0,4 -4,0 z M 84,184 l 4,0 0,4 -4,0 z M 88,184 l 4,0 0,4 -4,0 z M 96,184 l 4,0 0,4 -4,0 z M 100,184 l 4,0 0,4 -4,0 z M 104,184 l 4,0 0,4 -4,0 z M 128,184 l 4,0 0,4 -4,0 z M 144,184 l 4,0 0,4 -4,0 z M 156,184 l 4,0 0,4 -4,0 z M 172,184 l 4,0 0,4 -4,0 z M 176,184 l 4,0 0,4 -4,0 z M 192,184 l 4,0 0,4 -4,0 z M 196,184 l 4,0 0,4 -4,0 z M 204,184 l 4,0 0,4 -4,0 z M 208,184 l 4,0 0,4 -4,0 z M 224,184 l 4,0 0,4 -4,0 z M 228,184 l 4,0 0,4 -4,0 z M 4,188 l 4,0 0,4 -4,0 z M 12,188 l 4,0 0,4 -4,0 z M 24,188 l 4,0 0,4 -4,0 z M 28,188 l 4,0 0,4 -4,0 z M 32,188 l 4,0 0,4 -4,0 z M 36,188 l 4,0 0,4 -4,0 z M 48,188 l 4,0 0,4 -4,0 z M 56,188 l 4,0 0,4 -4,0 z M 60,188 l 4,0 0,4 -4,0 z M 64,188 l 4,0 0,4 -4,0 z M 76,188 l 4,0 0,4 -4,0 z M 80,188 l 4,0 0,4 -4,0 z M 84,188 l 4,0 0,4 -4,0 z M 96,188 l 4,0 0,4 -4,0 z M 100,188 l 4,0 0,4 -4,0 z M 104,188 l 4,0 0,4 -4,0 z M 108,188 l 4,0 0,4 -4,0 z M 112,188 l 4,0 0,4 -4,0 z M 116,188 l 4,0 0,4 -4,0 z M 128,188 l 4,0 0,4 -4,0 z M 144,188 l 4,0 0,4 -4,0 z M 164,188 l 4,0 0,4 -4,0 z M 172,188 l 4,0 0,4 -4,0 z M 180,188 l 4,0 0,4 -4,0 z M 184,188 l 4,0 0,4 -4,0 z M 188,188 l 4,0 0,4 -4,0 z M 200,188 l 4,0 0,4 -4,0 z M 204,188 l 4,0 0,4 -4,0 z M 208,188 l 4,0 0,4 -4,0 z M 216,188 l 4,0 0,4 -4,0 z M 220,188 l 4,0 0,4 -4,0 z M 4,192 l 4,0 0,4 -4,0 z M 8,192 l 4,0 0,4 -4,0 z M 12,192 l 4,0 0,4 -4,0 z M 16,192 l 4,0 0,4 -4,0 z M 20,192 l 4,0 0,4 -4,0 z M 32,192 l 4,0 0,4 -4,0 z M 52,192 l 4,0 0,4 -4,0 z M 56,192 l 4,0 0,4 -4,0 z M 64,192 l 4,0 0,4 -4,0 z M 88,192 l 4,0 0,4 -4,0 z M 96,192 l 4,0 0,4 -4,0 z M 100,192 l 4,0 0,4 -4,0 z M 128,192 l 4,0 0,4 -4,0 z M 136,192 l 4,0 0,4 -4,0 z M 140,192 l 4,0 0,4 -4,0 z M 144,192 l 4,0 0,4 -4,0 z M 148,192 l 4,0 0,4 -4,0 z M 152,192 l 4,0 0,4 -4,0 z M 156,192 l 4,0 0,4 -4,0 z M 184,192 l 4,0 0,4 -4,0 z M 196,192 l 4,0 0,4 -4,0 z M 200,192 l 4,0 0,4 -4,0 z M 208,192 l 4,0 0,4 -4,0 z M 212,192 l 4,0 0,4 -4,0 z M 224,192 l 4,0 0,4 -4,0 z M 28,196 l 4,0 0,4 -4,0 z M 32,196 l 4,0 0,4 -4,0 z M 36,196 l 4,0 0,4 -4,0 z M 44,196 l 4,0 0,4 -4,0 z M 48,196 l 4,0 0,4 -4,0 z M 52,196 l 4,0 0,4 -4,0 z M 56,196 l 4,0 0,4 -4,0 z M 68,196 l 4,0 0,4 -4,0 z M 76,196 l 4,0 0,4 -4,0 z M 88,196 l 4,0 0,4 -4,0 z M 108,196 l 4,0 0,4 -4,0 z M 112,196 l 4,0 0,4 -4,0 z M 116,196 l 4,0 0,4 -4,0 z M 120,196 l 4,0 0,4 -4,0 z M 124,196 l 4,0 0,4 -4,0 z M 132,196 l 4,0 0,4 -4,0 z M 136,196 l 4,0 0,4 -4,0 z M 144,196 l 4,0 0,4 -4,0 z M 156,196 l 4,0 0,4 -4,0 z M 164,196 l 4,0 0,4 -4,0 z M 172,196 l 4,0 0,4 -4,0 z M 176,196 l 4,0 0,4 -4,0 z M 184,196 l 4,0 0,4 -4,0 z M 196,196 l 4,0 0,4 -4,0 z M 200,196 l 4,0 0,4 -4,0 z M 204,196 l 4,0 0,4 -4,0 z M 208,196 l 4,0 0,4 -4,0 z M 212,196 l 4,0 0,4 -4,0 z M 224,196 l 4,0 0,4 -4,0 z M 36,200 l 4,0 0,4 -4,0 z M 40,200 l 4,0 0,4 -4,0 z M 44,200 l 4,0 0,4 -4,0 z M 52,200 l 4,0 0,4 -4,0 z M 56,200 l 4,0 0,4 -4,0 z M 60,200 l 4,0 0,4 -4,0 z M 64,200 l 4,0 0,4 -4,0 z M 68,200 l 4,0 0,4 -4,0 z M 76,200 l 4,0 0,4 -4,0 z M 84,200 l 4,0 0,4 -4,0 z M 92,200 l 4,0 0,4 -4,0 z M 104,200 l 4,0 0,4 -4,0 z M 108,200 l 4,0 0,4 -4,0 z M 124,200 l 4,0 0,4 -4,0 z M 132,200 l 4,0 0,4 -4,0 z M 136,200 l 4,0 0,4 -4,0 z M 140,200 l 4,0 0,4 -4,0 z M 152,200 l 4,0 0,4 -4,0 z M 156,200 l 4,0 0,4 -4,0 z M 160,200 l 4,0 0,4 -4,0 z M 164,200 l 4,0 0,4 -4,0 z M 168,200 l 4,0 0,4 -4,0 z M 180,200 l 4,0 0,4 -4,0 z M 196,200 l 4,0 0,4 -4,0 z M 212,200 l 4,0 0,4 -4,0 z M 216,200 l 4,0 0,4 -4,0 z M 228,200 l 4,0 0,4 -4,0 z M 4,204 l 4,0 0,4 -4,0 z M 8,204 l 4,0 0,4 -4,0 z M 12,204 l 4,0 0,4 -4,0 z M 16,204 l 4,0 0,4 -4,0 z M 20,204 l 4,0 0,4 -4,0 z M 24,204 l 4,0 0,4 -4,0 z M 28,204 l 4,0 0,4 -4,0 z M 36,204 l 4,0 0,4 -4,0 z M 44,204 l 4,0 0,4 -4,0 z M 48,204 l 4,0 0,4 -4,0 z M 72,204 l 4,0 0,4 -4,0 z M 84,204 l 4,0 0,4 -4,0 z M 88,204 l 4,0 0,4 -4,0 z M 92,204 l 4,0 0,4 -4,0 z M 96,204 l 4,0 0,4 -4,0 z M 104,204 l 4,0 0,4 -4,0 z M 108,204 l 4,0 0,4 -4,0 z M 116,204 l 4,0 0,4 -4,0 z M 124,204 l 4,0 0,4 -4,0 z M 132,204 l 4,0 0,4 -4,0 z M 136,204 l 4,0 0,4 -4,0 z M 148,204 l 4,0 0,4 -4,0 z M 152,204 l 4,0 0,4 -4,0 z M 160,204 l 4,0 0,4 -4,0 z M 164,204 l 4,0 0,4 -4,0 z M 172,204 l 4,0 0,4 -4,0 z M 180,204 l 4,0 0,4 -4,0 z M 196,204 l 4,0 0,4 -4,0 z M 204,204 l 4,0 0,4 -4,0 z M 212,204 l 4,0 0,4 -4,0 z M 216,204 l 4,0 0,4 -4,0 z M 220,204 l 4,0 0,4 -4,0 z M 4,208 l 4,0 0,4 -4,0 z M 28,208 l 4,0 0,4 -4,0 z M 40,208 l 4,0 0,4 -4,0 z M 52,208 l 4,0 0,4 -4,0 z M 56,208 l 4,0 0,4 -4,0 z M 64,208 l 4,0 0,4 -4,0 z M 72,208 l 4,0 0,4 -4,0 z M 80,208 l 4,0 0,4 -4,0 z M 92,208 l 4,0 0,4 -4,0 z M 96,208 l 4,0 0,4 -4,0 z M 100,208 l 4,0 0,4 -4,0 z M 108,208 l 4,0 0,4 -4,0 z M 124,208 l 4,0 0,4 -4,0 z M 132,208 l 4,0 0,4 -4,0 z M 140,208 l 4,0 0,4 -4,0 z M 144,208 l 4,0 0,4 -4,0 z M 148,208 l 4,0 0,4 -4,0 z M 152,208 l 4,0 0,4 -4,0 z M 156,208 l 4,0 0,4 -4,0 z M 160,208 l 4,0 0,4 -4,0 z M 164,208 l 4,0 0,4 -4,0 z M 168,208 l 4,0 0,4 -4,0 z M 176,208 l 4,0 0,4 -4,0 z M 180,208 l 4,0 0,4 -4,0 z M 184,208 l 4,0 0,4 -4,0 z M 188,208 l 4,0 0,4 -4,0 z M 196,208 l 4,0 0,4 -4,0 z M 212,208 l 4,0 0,4 -4,0 z M 216,208 l 4,0 0,4 -4,0 z M 220,208 l 4,0 0,4 -4,0 z M 228,208 l 4,0 0,4 -4,0 z M 4,212 l 4,0 0,4 -4,0 z M 12,212 l 4,0 0,4 -4,0 z M 16,212 l 4,0 0,4 -4,0 z M 20,212 l 4,0 0,4 -4,0 z M 28,212 l 4,0 0,4 -4,0 z M 36,212 l 4,0 0,4 -4,0 z M 44,212 l 4,0 0,4 -4,0 z M 48,212 l 4,0 0,4 -4,0 z M 52,212 l 4,0 0,4 -4,0 z M 60,212 l 4,0 0,4 -4,0 z M 64,212 l 4,0 0,4 -4,0 z M 80,212 l 4,0 0,4 -4,0 z M 92,212 l 4,0 0,4 -4,0 z M 100,212 l 4,0 0,4 -4,0 z M 104,212 l 4,0 0,4 -4,0 z M 108,212 l 4,0 0,4 -4,0 z M 112,212 l 4,0 0,4 -4,0 z M 116,212 l 4,0 0,4 -4,0 z M 120,212 l 4,0 0,4 -4,0 z M 124,212 l 4,0 0,4 -4,0 z M 128,212 l 4,0 0,4 -4,0 z M 132,212 l 4,0 0,4 -4,0 z M 148,212 l 4,0 0,4 -4,0 z M 152,212 l 4,0 0,4 -4,0 z M 172,212 l 4,0 0,4 -4,0 z M 180,212 l 4,0 0,4 -4,0 z M 196,212 l 4,0 0,4 -4,0 z M 200,212 l 4,0 0,4 -4,0 z M 204,212 l 4,0 0,4 -4,0 z M 208,212 l 4,0 0,4 -4,0 z M 212,212 l 4,0 0,4 -4,0 z M 216,212 l 4,0 0,4 -4,0 z M 220,212 l 4,0 0,4 -4,0 z M 228,212 l 4,0 0,4 -4,0 z M 4,216 l 4,0 0,4 -4,0 z M 12,216 l 4,0 0,4 -4,0 z M 16,216 l 4,0 0,4 -4,0 z M 20,216 l 4,0 0,4 -4,0 z M 28,216 l 4,0 0,4 -4,0 z M 36,216 l 4,0 0,4 -4,0 z M 44,216 l 4,0 0,4 -4,0 z M 56,216 l 4,0 0,4 -4,0 z M 60,216 l 4,0 0,4 -4,0 z M 68,216 l 4,0 0,4 -4,0 z M 72,216 l 4,0 0,4 -4,0 z M 76,216 l 4,0 0,4 -4,0 z M 88,216 l 4,0 0,4 -4,0 z M 92,216 l 4,0 0,4 -4,0 z M 96,216 l 4,0 0,4 -4,0 z M 108,216 l 4,0 0,4 -4,0 z M 112,216 l 4,0 0,4 -4,0 z M 116,216 l 4,0 0,4 -4,0 z M 124,216 l 4,0 0,4 -4,0 z M 132,216 l 4,0 0,4 -4,0 z M 136,216 l 4,0 0,4 -4,0 z M 140,216 l 4,0 0,4 -4,0 z M 152,216 l 4,0 0,4 -4,0 z M 156,216 l 4,0 0,4 -4,0 z M 160,216 l 4,0 0,4 -4,0 z M 164,216 l 4,0 0,4 -4,0 z M 172,216 l 4,0 0,4 -4,0 z M 176,216 l 4,0 0,4 -4,0 z M 200,216 l 4,0 0,4 -4,0 z M 204,216 l 4,0 0,4 -4,0 z M 212,216 l 4,0 0,4 -4,0 z M 216,216 l 4,0 0,4 -4,0 z M 4,220 l 4,0 0,4 -4,0 z M 12,220 l 4,0 0,4 -4,0 z M 16,220 l 4,0 0,4 -4,0 z M 20,220 l 4,0 0,4 -4,0 z M 28,220 l 4,0 0,4 -4,0 z M 36,220 l 4,0 0,4 -4,0 z M 40,220 l 4,0 0,4 -4,0 z M 48,220 l 4,0 0,4 -4,0 z M 64,220 l 4,0 0,4 -4,0 z M 68,220 l 4,0 0,4 -4,0 z M 76,220 l 4,0 0,4 -4,0 z M 80,220 l 4,0 0,4 -4,0 z M 104,220 l 4,0 0,4 -4,0 z M 108,220 l 4,0 0,4 -4,0 z M 112,220 l 4,0 0,4 -4,0 z M 116,220 l 4,0 0,4 -4,0 z M 120,220 l 4,0 0,4 -4,0 z M 124,220 l 4,0 0,4 -4,0 z M 128,220 l 4,0 0,4 -4,0 z M 136,220 l 4,0 0,4 -4,0 z M 144,220 l 4,0 0,4 -4,0 z M 148,220 l 4,0 0,4 -4,0 z M 160,220 l 4,0 0,4 -4,0 z M 176,220 l 4,0 0,4 -4,0 z M 180,220 l 4,0 0,4 -4,0 z M 184,220 l 4,0 0,4 -4,0 z M 192,220 l 4,0 0,4 -4,0 z M 196,220 l 4,0 0,4 -4,0 z M 212,220 l 4,0 0,4 -4,0 z M 216,220 l 4,0 0,4 -4,0 z M 220,220 l 4,0 0,4 -4,0 z M 4,224 l 4,0 0,4 -4,0 z M 28,224 l 4,0 0,4 -4,0 z M 36,224 l 4,0 0,4 -4,0 z M 48,224 l 4,0 0,4 -4,0 z M 68,224 l 4,0 0,4 -4,0 z M 72,224 l 4,0 0,4 -4,0 z M 76,224 l 4,0 0,4 -4,0 z M 88,224 l 4,0 0,4 -4,0 z M 92,224 l 4,0 0,4 -4,0 z M 96,224 l 4,0 0,4 -4,0 z M 108,224 l 4,0 0,4 -4,0 z M 112,224 l 4,0 0,4 -4,0 z M 124,224 l 4,0 0,4 -4,0 z M 132,224 l 4,0 0,4 -4,0 z M 152,224 l 4,0 0,4 -4,0 z M 156,224 l 4,0 0,4 -4,0 z M 160,224 l 4,0 0,4 -4,0 z M 188,224 l 4,0 0,4 -4,0 z M 192,224 l 4,0 0,4 -4,0 z M 204,224 l 4,0 0,4 -4,0 z M 208,224 l 4,0 0,4 -4,0 z M 212,224 l 4,0 0,4 -4,0 z M 228,224 l 4,0 0,4 -4,0 z M 4,228 l 4,0 0,4 -4,0 z M 8,228 l 4,0 0,4 -4,0 z M 12,228 l 4,0 0,4 -4,0 z M 16,228 l 4,0 0,4 -4,0 z M 20,228 l 4,0 0,4 -4,0 z M 24,228 l 4,0 0,4 -4,0 z M 28,228 l 4,0 0,4 -4,0 z M 36,228 l 4,0 0,4 -4,0 z M 40,228 l 4,0 0,4 -4,0 z M 48,228 l 4,0 0,4 -4,0 z M 64,228 l 4,0 0,4 -4,0 z M 72,228 l 4,0 0,4 -4,0 z M 76,228 l 4,0 0,4 -4,0 z M 88,228 l 4,0 0,4 -4,0 z M 92,228 l 4,0 0,4 -4,0 z M 100,228 l 4,0 0,4 -4,0 z M 108,228 l 4,0 0,4 -4,0 z M 112,228 l 4,0 0,4 -4,0 z M 124,228 l 4,0 0,4 -4,0 z M 132,228 l 4,0 0,4 -4,0 z M 144,228 l 4,0 0,4 -4,0 z M 148,228 l 4,0 0,4 -4,0 z M 164,228 l 4,0 0,4 -4,0 z M 172,228 l 4,0 0,4 -4,0 z M 176,228 l 4,0 0,4 -4,0 z M 180,228 l 4,0 0,4 -4,0 z M 192,228 l 4,0 0,4 -4,0 z M 196,228 l 4,0 0,4 -4,0 z M 208,228 l 4,0 0,4 -4,0 z M 212,228 l 4,0 0,4 -4,0 z M 220,228 l 4,0 0,4 -4,0 z " />
	</g>
</svg>
